<mxfile host="app.diagrams.net" modified="2021-07-16T02:27:39.370Z" agent="5.0 (Macintosh; Intel Mac OS X 10_13_6) AppleWebKit/537.36 (KHTML, like Gecko) Chrome/91.0.4472.114 Safari/537.36" etag="cX5t080YDAdHksGfWJc5" version="14.8.6" type="github">
  <diagram id="BQx3IjTqpcEZuWHceGGO" name="Page-1">
    <mxGraphModel dx="1426" dy="729" grid="1" gridSize="10" guides="1" tooltips="1" connect="1" arrows="1" fold="1" page="1" pageScale="1" pageWidth="827" pageHeight="1169" math="0" shadow="0">
      <root>
        <mxCell id="0" />
        <mxCell id="1" parent="0" />
      </root>
    </mxGraphModel>
  </diagram>
</mxfile>
